<svg xmlns="http://www.w3.org/2000/svg" viewBox="0 0 400 500" width="400" height="500">
  <rect width="400" height="500" rx="20" fill="#0d0d1a"/>
  <!-- Cabelo desgrenhado preto -->
  <path d="M155 125 Q165 90 195 105 Q210 85 225 100 Q240 82 255 108 Q268 95 270 130" fill="#1a1a2e" stroke="none"/>
  <!-- Cabeça -->
  <ellipse cx="210" cy="185" rx="70" ry="68" fill="#D4C4A8"/>
  <!-- Olhos arregalados -->
  <ellipse cx="178" cy="175" rx="17" ry="19" fill="white"/>
  <ellipse cx="242" cy="175" rx="17" ry="19" fill="white"/>
  <circle cx="180" cy="177" r="8" fill="#2C5F7C"/>
  <circle cx="244" cy="177" r="8" fill="#2C5F7C"/>
  <circle cx="182" cy="175" r="3" fill="white"/>
  <circle cx="246" cy="175" r="3" fill="white"/>
  <!-- Nariz laranja -->
  <ellipse cx="210" cy="195" rx="8" ry="6" fill="#E8505B"/>
  <!-- Boca séria -->
  <line x1="190" y1="215" x2="230" y2="215" stroke="#3d2b1a" stroke-width="2.5" stroke-linecap="round"/>
  <!-- Óculos -->
  <circle cx="178" cy="175" r="22" fill="none" stroke="#5C3D2E" stroke-width="3"/>
  <circle cx="242" cy="175" r="22" fill="none" stroke="#5C3D2E" stroke-width="3"/>
  <line x1="200" y1="175" x2="220" y2="175" stroke="#5C3D2E" stroke-width="3"/>
  <line x1="156" y1="172" x2="142" y2="168" stroke="#5C3D2E" stroke-width="2"/>
  <line x1="264" y1="172" x2="278" y2="168" stroke="#5C3D2E" stroke-width="2"/>
  <!-- Corpo terno de jornal -->
  <rect x="170" y="255" width="70" height="35" rx="3" fill="#888"/>
  <line x1="175" y1="262" x2="235" y2="262" stroke="#666" stroke-width="0.5"/>
  <line x1="175" y1="268" x2="235" y2="268" stroke="#666" stroke-width="0.5"/>
  <line x1="175" y1="274" x2="235" y2="274" stroke="#666" stroke-width="0.5"/>
  <line x1="175" y1="280" x2="235" y2="280" stroke="#666" stroke-width="0.5"/>
  <!-- Gravata -->
  <rect x="203" y="255" width="14" height="40" rx="2" fill="#1a1a2e"/>
  <!-- Pastinha -->
  <rect x="138" y="260" width="30" height="40" rx="2" fill="#5C3D2E" transform="rotate(-10,153,280)"/>
  <rect x="140" y="262" width="26" height="36" rx="1" fill="#D4C4A8" transform="rotate(-10,153,280)"/>
  <line x1="145" y1="270" x2="160" y2="268" stroke="#666" stroke-width="0.5" transform="rotate(-10,153,280)"/>
  <line x1="145" y1="276" x2="160" y2="274" stroke="#666" stroke-width="0.5" transform="rotate(-10,153,280)"/>
  <!-- Braços -->
  <rect x="128" y="258" width="12" height="50" rx="3" fill="#888" transform="rotate(-5,134,283)"/>
  <rect x="262" y="258" width="12" height="50" rx="3" fill="#888" transform="rotate(5,268,283)"/>
  <!-- Calças -->
  <rect x="180" y="290" width="22" height="45" rx="3" fill="#666"/>
  <rect x="206" y="290" width="22" height="45" rx="3" fill="#666"/>
  <text x="200" y="470" text-anchor="middle" font-family="Georgia, serif" font-size="16" fill="#888" font-style="italic">Dr. Burocrata</text>
</svg>
