<svg xmlns="http://www.w3.org/2000/svg" viewBox="0 0 400 500" width="400" height="500">
  <rect width="400" height="500" rx="20" fill="#1a1a05"/>
  <!-- Chapéu de palha -->
  <ellipse cx="205" cy="115" rx="70" ry="25" fill="#D4A05A"/>
  <ellipse cx="205" cy="110" rx="50" ry="18" fill="#C4944A"/>
  <rect x="155" y="105" width="100" height="8" rx="3" fill="#B8843A"/>
  <!-- Cabeça -->
  <ellipse cx="205" cy="170" rx="65" ry="62" fill="#D4A05A"/>
  <!-- Olhos firmes -->
  <ellipse cx="180" cy="165" rx="13" ry="14" fill="white"/>
  <ellipse cx="230" cy="165" rx="13" ry="14" fill="white"/>
  <circle cx="182" cy="167" r="8" fill="#3d2b1a"/>
  <circle cx="232" cy="167" r="8" fill="#3d2b1a"/>
  <!-- Sobrancelhas grossas -->
  <line x1="165" y1="148" x2="190" y2="150" stroke="#8B5E3C" stroke-width="4" stroke-linecap="round"/>
  <line x1="245" y1="148" x2="220" y2="150" stroke="#8B5E3C" stroke-width="4" stroke-linecap="round"/>
  <!-- Nariz -->
  <ellipse cx="205" cy="182" rx="7" ry="4" fill="#B8843A"/>
  <!-- Sorriso acolhedor -->
  <path d="M185 195 Q205 215 225 195" fill="none" stroke="#3d2b1a" stroke-width="2.5" stroke-linecap="round"/>
  <!-- Nós de bambu marcados no corpo -->
  <rect x="178" y="240" width="54" height="28" rx="3" fill="#D4A05A"/>
  <rect x="178" y="268" width="54" height="6" rx="2" fill="#8B5E3C"/>
  <rect x="178" y="274" width="54" height="28" rx="3" fill="#C4944A"/>
  <rect x="178" y="302" width="54" height="6" rx="2" fill="#8B5E3C"/>
  <rect x="178" y="308" width="54" height="28" rx="3" fill="#B8843A"/>
  <!-- Braços fortes -->
  <rect x="125" y="245" width="14" height="55" rx="5" fill="#D4A05A" transform="rotate(-12,132,272)"/>
  <circle cx="130" cy="302" r="7" fill="#C4944A"/>
  <rect x="265" y="245" width="14" height="55" rx="5" fill="#D4A05A" transform="rotate(12,272,272)"/>
  <circle cx="274" cy="302" r="7" fill="#C4944A"/>
  <!-- Camisa simples -->
  <rect x="170" y="235" width="70" height="8" rx="2" fill="#8B5E3C"/>
  <text x="200" y="470" text-anchor="middle" font-family="Georgia, serif" font-size="18" fill="#D4A05A" font-style="italic">Taboca</text>
</svg>
